<mxfile host="app.diagrams.net" modified="2020-11-30T03:28:40.940Z" agent="5.0 (Macintosh; Intel Mac OS X 10_15_4) AppleWebKit/537.36 (KHTML, like Gecko) Chrome/87.0.4280.67 Safari/537.36" etag="BUnhl88flYQXFn9rwIBS" version="13.10.4" type="github" pages="2">
  <diagram id="PeFQfypTE_811V4LsQpA" name="Page-1">
    <mxGraphModel dx="946" dy="614" grid="1" gridSize="10" guides="1" tooltips="1" connect="1" arrows="1" fold="1" page="1" pageScale="1" pageWidth="827" pageHeight="1169" math="0" shadow="0">
      <root>
        <mxCell id="0" />
        <mxCell id="1" parent="0" />
        <mxCell id="2WCbWdA5m7WLPWOlQFtL-9" style="edgeStyle=orthogonalEdgeStyle;rounded=0;orthogonalLoop=1;jettySize=auto;html=1;entryX=0.5;entryY=0;entryDx=0;entryDy=0;fontFamily=Georgia;" parent="1" source="2WCbWdA5m7WLPWOlQFtL-1" target="2WCbWdA5m7WLPWOlQFtL-2" edge="1">
          <mxGeometry relative="1" as="geometry" />
        </mxCell>
        <mxCell id="2WCbWdA5m7WLPWOlQFtL-1" value="订单创建" style="rounded=0;whiteSpace=wrap;html=1;fontFamily=Georgia;" parent="1" vertex="1">
          <mxGeometry x="360" y="100" width="120" height="50" as="geometry" />
        </mxCell>
        <mxCell id="2WCbWdA5m7WLPWOlQFtL-10" style="edgeStyle=orthogonalEdgeStyle;rounded=0;orthogonalLoop=1;jettySize=auto;html=1;entryX=0.5;entryY=0;entryDx=0;entryDy=0;fontFamily=Georgia;" parent="1" source="2WCbWdA5m7WLPWOlQFtL-2" target="2WCbWdA5m7WLPWOlQFtL-3" edge="1">
          <mxGeometry relative="1" as="geometry" />
        </mxCell>
        <mxCell id="2WCbWdA5m7WLPWOlQFtL-2" value="kNN算法寻找相似历史订单" style="rounded=0;whiteSpace=wrap;html=1;fontFamily=Georgia;" parent="1" vertex="1">
          <mxGeometry x="340" y="200" width="160" height="50" as="geometry" />
        </mxCell>
        <mxCell id="2WCbWdA5m7WLPWOlQFtL-11" style="edgeStyle=orthogonalEdgeStyle;rounded=0;orthogonalLoop=1;jettySize=auto;html=1;entryX=0.5;entryY=0;entryDx=0;entryDy=0;fontFamily=Georgia;" parent="1" source="2WCbWdA5m7WLPWOlQFtL-3" target="2WCbWdA5m7WLPWOlQFtL-7" edge="1">
          <mxGeometry relative="1" as="geometry" />
        </mxCell>
        <mxCell id="2WCbWdA5m7WLPWOlQFtL-3" value="配送相似历史订单的驾驶员" style="rounded=0;whiteSpace=wrap;html=1;fontFamily=Georgia;" parent="1" vertex="1">
          <mxGeometry x="327" y="290" width="186" height="50" as="geometry" />
        </mxCell>
        <mxCell id="2WCbWdA5m7WLPWOlQFtL-17" style="edgeStyle=none;rounded=0;orthogonalLoop=1;jettySize=auto;html=1;entryX=0.5;entryY=0;entryDx=0;entryDy=0;entryPerimeter=0;fontFamily=Georgia;" parent="1" source="2WCbWdA5m7WLPWOlQFtL-7" target="2WCbWdA5m7WLPWOlQFtL-15" edge="1">
          <mxGeometry relative="1" as="geometry" />
        </mxCell>
        <mxCell id="2WCbWdA5m7WLPWOlQFtL-7" value="决策树算法" style="rounded=0;whiteSpace=wrap;html=1;fontFamily=Georgia;" parent="1" vertex="1">
          <mxGeometry x="360" y="390" width="120" height="50" as="geometry" />
        </mxCell>
        <mxCell id="2WCbWdA5m7WLPWOlQFtL-20" style="edgeStyle=orthogonalEdgeStyle;rounded=0;orthogonalLoop=1;jettySize=auto;html=1;entryX=0.5;entryY=1;entryDx=0;entryDy=0;exitX=0.5;exitY=0;exitDx=0;exitDy=0;fontFamily=Georgia;" parent="1" source="2WCbWdA5m7WLPWOlQFtL-24" target="2WCbWdA5m7WLPWOlQFtL-19" edge="1">
          <mxGeometry relative="1" as="geometry">
            <mxPoint x="340" y="520" as="targetPoint" />
          </mxGeometry>
        </mxCell>
        <mxCell id="2WCbWdA5m7WLPWOlQFtL-21" value="配送行为评价" style="edgeLabel;html=1;align=center;verticalAlign=middle;resizable=0;points=[];fontFamily=Georgia;" parent="2WCbWdA5m7WLPWOlQFtL-20" vertex="1" connectable="0">
          <mxGeometry x="-0.2427" y="-1" relative="1" as="geometry">
            <mxPoint as="offset" />
          </mxGeometry>
        </mxCell>
        <mxCell id="2WCbWdA5m7WLPWOlQFtL-25" style="edgeStyle=orthogonalEdgeStyle;rounded=0;orthogonalLoop=1;jettySize=auto;html=1;entryX=0.5;entryY=1;entryDx=0;entryDy=0;fontFamily=Georgia;" parent="1" source="2WCbWdA5m7WLPWOlQFtL-15" target="2WCbWdA5m7WLPWOlQFtL-24" edge="1">
          <mxGeometry relative="1" as="geometry" />
        </mxCell>
        <mxCell id="2WCbWdA5m7WLPWOlQFtL-15" value="驾驶员" style="shape=umlActor;verticalLabelPosition=bottom;labelBackgroundColor=#ffffff;verticalAlign=top;html=1;outlineConnect=0;fontFamily=Georgia;" parent="1" vertex="1">
          <mxGeometry x="405" y="490" width="30" height="60" as="geometry" />
        </mxCell>
        <mxCell id="2WCbWdA5m7WLPWOlQFtL-22" style="rounded=0;orthogonalLoop=1;jettySize=auto;html=1;entryX=0;entryY=0.5;entryDx=0;entryDy=0;exitX=1;exitY=0.5;exitDx=0;exitDy=0;fontFamily=Georgia;" parent="1" source="2WCbWdA5m7WLPWOlQFtL-19" target="2WCbWdA5m7WLPWOlQFtL-2" edge="1">
          <mxGeometry relative="1" as="geometry" />
        </mxCell>
        <mxCell id="2WCbWdA5m7WLPWOlQFtL-23" style="edgeStyle=none;rounded=0;orthogonalLoop=1;jettySize=auto;html=1;entryX=0;entryY=0.5;entryDx=0;entryDy=0;exitX=1;exitY=0.5;exitDx=0;exitDy=0;fontFamily=Georgia;" parent="1" source="2WCbWdA5m7WLPWOlQFtL-19" target="2WCbWdA5m7WLPWOlQFtL-7" edge="1">
          <mxGeometry relative="1" as="geometry" />
        </mxCell>
        <mxCell id="2WCbWdA5m7WLPWOlQFtL-19" value="数据库" style="rounded=0;whiteSpace=wrap;html=1;fontFamily=Georgia;" parent="1" vertex="1">
          <mxGeometry x="92" y="259" width="120" height="50" as="geometry" />
        </mxCell>
        <mxCell id="2WCbWdA5m7WLPWOlQFtL-24" value="数据收集" style="rounded=0;whiteSpace=wrap;html=1;fontFamily=Georgia;" parent="1" vertex="1">
          <mxGeometry x="92" y="390" width="120" height="50" as="geometry" />
        </mxCell>
        <mxCell id="fOUUdUjOZJCT6rzFa5qx-2" style="edgeStyle=orthogonalEdgeStyle;rounded=0;orthogonalLoop=1;jettySize=auto;html=1;entryX=0.5;entryY=0;entryDx=0;entryDy=0;" parent="1" source="fOUUdUjOZJCT6rzFa5qx-1" target="2WCbWdA5m7WLPWOlQFtL-1" edge="1">
          <mxGeometry relative="1" as="geometry" />
        </mxCell>
        <mxCell id="fOUUdUjOZJCT6rzFa5qx-1" value="系统初始化" style="rounded=0;whiteSpace=wrap;html=1;fontFamily=Georgia;" parent="1" vertex="1">
          <mxGeometry x="360" width="120" height="50" as="geometry" />
        </mxCell>
      </root>
    </mxGraphModel>
  </diagram>
  <diagram name="English version of Page-1" id="iPzfZTRPRRoJLGzE3nM6">
    <mxGraphModel dx="946" dy="614" grid="1" gridSize="10" guides="1" tooltips="1" connect="1" arrows="1" fold="1" page="1" pageScale="1" pageWidth="827" pageHeight="1169" math="0" shadow="0">
      <root>
        <mxCell id="qlGtOZ3_fumsXV_bZ_-v-0" />
        <mxCell id="qlGtOZ3_fumsXV_bZ_-v-1" parent="qlGtOZ3_fumsXV_bZ_-v-0" />
        <mxCell id="qlGtOZ3_fumsXV_bZ_-v-2" style="edgeStyle=orthogonalEdgeStyle;rounded=0;orthogonalLoop=1;jettySize=auto;html=1;entryX=0.5;entryY=0;entryDx=0;entryDy=0;fontFamily=Georgia;" edge="1" parent="qlGtOZ3_fumsXV_bZ_-v-1" source="qlGtOZ3_fumsXV_bZ_-v-3" target="qlGtOZ3_fumsXV_bZ_-v-5">
          <mxGeometry relative="1" as="geometry" />
        </mxCell>
        <mxCell id="qlGtOZ3_fumsXV_bZ_-v-20" value="KNN&amp;nbsp;algorithm" style="edgeLabel;html=1;align=center;verticalAlign=middle;resizable=0;points=[];" vertex="1" connectable="0" parent="qlGtOZ3_fumsXV_bZ_-v-2">
          <mxGeometry x="-0.28" y="1" relative="1" as="geometry">
            <mxPoint as="offset" />
          </mxGeometry>
        </mxCell>
        <mxCell id="qlGtOZ3_fumsXV_bZ_-v-3" value="Create order" style="rounded=0;whiteSpace=wrap;html=1;fontFamily=Georgia;" vertex="1" parent="qlGtOZ3_fumsXV_bZ_-v-1">
          <mxGeometry x="360" y="100" width="120" height="50" as="geometry" />
        </mxCell>
        <mxCell id="qlGtOZ3_fumsXV_bZ_-v-4" style="edgeStyle=orthogonalEdgeStyle;rounded=0;orthogonalLoop=1;jettySize=auto;html=1;entryX=0.5;entryY=0;entryDx=0;entryDy=0;fontFamily=Georgia;" edge="1" parent="qlGtOZ3_fumsXV_bZ_-v-1" source="qlGtOZ3_fumsXV_bZ_-v-5" target="qlGtOZ3_fumsXV_bZ_-v-7">
          <mxGeometry relative="1" as="geometry" />
        </mxCell>
        <mxCell id="qlGtOZ3_fumsXV_bZ_-v-5" value="Find similar &lt;br&gt;historical orders" style="rounded=0;whiteSpace=wrap;html=1;fontFamily=Georgia;" vertex="1" parent="qlGtOZ3_fumsXV_bZ_-v-1">
          <mxGeometry x="340" y="200" width="160" height="50" as="geometry" />
        </mxCell>
        <mxCell id="qlGtOZ3_fumsXV_bZ_-v-6" style="edgeStyle=orthogonalEdgeStyle;rounded=0;orthogonalLoop=1;jettySize=auto;html=1;entryX=0.5;entryY=0;entryDx=0;entryDy=0;fontFamily=Georgia;" edge="1" parent="qlGtOZ3_fumsXV_bZ_-v-1" source="qlGtOZ3_fumsXV_bZ_-v-7" target="qlGtOZ3_fumsXV_bZ_-v-9">
          <mxGeometry relative="1" as="geometry" />
        </mxCell>
        <mxCell id="qlGtOZ3_fumsXV_bZ_-v-7" value="Drivers who delivered these orders" style="rounded=0;whiteSpace=wrap;html=1;fontFamily=Georgia;" vertex="1" parent="qlGtOZ3_fumsXV_bZ_-v-1">
          <mxGeometry x="327" y="290" width="186" height="50" as="geometry" />
        </mxCell>
        <mxCell id="qlGtOZ3_fumsXV_bZ_-v-8" style="edgeStyle=none;rounded=0;orthogonalLoop=1;jettySize=auto;html=1;entryX=0.5;entryY=0;entryDx=0;entryDy=0;entryPerimeter=0;fontFamily=Georgia;" edge="1" parent="qlGtOZ3_fumsXV_bZ_-v-1" source="qlGtOZ3_fumsXV_bZ_-v-9" target="qlGtOZ3_fumsXV_bZ_-v-13">
          <mxGeometry relative="1" as="geometry" />
        </mxCell>
        <mxCell id="qlGtOZ3_fumsXV_bZ_-v-9" value="Decision tree algorithm" style="rounded=0;whiteSpace=wrap;html=1;fontFamily=Georgia;" vertex="1" parent="qlGtOZ3_fumsXV_bZ_-v-1">
          <mxGeometry x="360" y="390" width="120" height="50" as="geometry" />
        </mxCell>
        <mxCell id="qlGtOZ3_fumsXV_bZ_-v-10" style="edgeStyle=orthogonalEdgeStyle;rounded=0;orthogonalLoop=1;jettySize=auto;html=1;entryX=0.5;entryY=1;entryDx=0;entryDy=0;exitX=0.5;exitY=0;exitDx=0;exitDy=0;fontFamily=Georgia;" edge="1" parent="qlGtOZ3_fumsXV_bZ_-v-1" source="qlGtOZ3_fumsXV_bZ_-v-17" target="qlGtOZ3_fumsXV_bZ_-v-16">
          <mxGeometry relative="1" as="geometry">
            <mxPoint x="340" y="520" as="targetPoint" />
          </mxGeometry>
        </mxCell>
        <mxCell id="qlGtOZ3_fumsXV_bZ_-v-11" value="Evaluate distribution behavior" style="edgeLabel;html=1;align=center;verticalAlign=middle;resizable=0;points=[];fontFamily=Georgia;" vertex="1" connectable="0" parent="qlGtOZ3_fumsXV_bZ_-v-10">
          <mxGeometry x="-0.2427" y="-1" relative="1" as="geometry">
            <mxPoint as="offset" />
          </mxGeometry>
        </mxCell>
        <mxCell id="qlGtOZ3_fumsXV_bZ_-v-12" style="edgeStyle=orthogonalEdgeStyle;rounded=0;orthogonalLoop=1;jettySize=auto;html=1;entryX=0.5;entryY=1;entryDx=0;entryDy=0;fontFamily=Georgia;" edge="1" parent="qlGtOZ3_fumsXV_bZ_-v-1" source="qlGtOZ3_fumsXV_bZ_-v-13" target="qlGtOZ3_fumsXV_bZ_-v-17">
          <mxGeometry relative="1" as="geometry" />
        </mxCell>
        <mxCell id="qlGtOZ3_fumsXV_bZ_-v-13" value="Driver" style="shape=umlActor;verticalLabelPosition=bottom;labelBackgroundColor=#ffffff;verticalAlign=top;html=1;outlineConnect=0;fontFamily=Georgia;" vertex="1" parent="qlGtOZ3_fumsXV_bZ_-v-1">
          <mxGeometry x="405" y="490" width="30" height="60" as="geometry" />
        </mxCell>
        <mxCell id="qlGtOZ3_fumsXV_bZ_-v-14" style="rounded=0;orthogonalLoop=1;jettySize=auto;html=1;entryX=0;entryY=0.5;entryDx=0;entryDy=0;exitX=1;exitY=0.5;exitDx=0;exitDy=0;fontFamily=Georgia;" edge="1" parent="qlGtOZ3_fumsXV_bZ_-v-1" source="qlGtOZ3_fumsXV_bZ_-v-16" target="qlGtOZ3_fumsXV_bZ_-v-5">
          <mxGeometry relative="1" as="geometry" />
        </mxCell>
        <mxCell id="qlGtOZ3_fumsXV_bZ_-v-15" style="edgeStyle=none;rounded=0;orthogonalLoop=1;jettySize=auto;html=1;entryX=0;entryY=0.5;entryDx=0;entryDy=0;exitX=1;exitY=0.5;exitDx=0;exitDy=0;fontFamily=Georgia;" edge="1" parent="qlGtOZ3_fumsXV_bZ_-v-1" source="qlGtOZ3_fumsXV_bZ_-v-16" target="qlGtOZ3_fumsXV_bZ_-v-9">
          <mxGeometry relative="1" as="geometry" />
        </mxCell>
        <mxCell id="qlGtOZ3_fumsXV_bZ_-v-16" value="Database" style="rounded=0;whiteSpace=wrap;html=1;fontFamily=Georgia;" vertex="1" parent="qlGtOZ3_fumsXV_bZ_-v-1">
          <mxGeometry x="92" y="259" width="120" height="50" as="geometry" />
        </mxCell>
        <mxCell id="qlGtOZ3_fumsXV_bZ_-v-17" value="Collecting data" style="rounded=0;whiteSpace=wrap;html=1;fontFamily=Georgia;" vertex="1" parent="qlGtOZ3_fumsXV_bZ_-v-1">
          <mxGeometry x="92" y="390" width="120" height="50" as="geometry" />
        </mxCell>
        <mxCell id="qlGtOZ3_fumsXV_bZ_-v-18" style="edgeStyle=orthogonalEdgeStyle;rounded=0;orthogonalLoop=1;jettySize=auto;html=1;entryX=0.5;entryY=0;entryDx=0;entryDy=0;" edge="1" parent="qlGtOZ3_fumsXV_bZ_-v-1" source="qlGtOZ3_fumsXV_bZ_-v-19" target="qlGtOZ3_fumsXV_bZ_-v-3">
          <mxGeometry relative="1" as="geometry" />
        </mxCell>
        <mxCell id="qlGtOZ3_fumsXV_bZ_-v-19" value="Initialize system" style="rounded=0;whiteSpace=wrap;html=1;fontFamily=Georgia;" vertex="1" parent="qlGtOZ3_fumsXV_bZ_-v-1">
          <mxGeometry x="360" width="120" height="50" as="geometry" />
        </mxCell>
      </root>
    </mxGraphModel>
  </diagram>
</mxfile>
